 <svg
          version="1.1"
          id="Layer_1"
          xmlns="http://www.w3.org/2000/svg"
          x="0px"
          y="0px"
          viewBox="0 0 100 100"
          className="custom-svg"
        >
          <path
            className="st0 custom-svg"
            d="M93.8,3.8C89-0.8,81.3-0.7,76.7,4.1c-4.1,4.3-4.5,10.8-1.1,15.4L58.3,37.4c-2.3-1.7-5.2-2.6-8.3-2.6
		c-3.5,0-6.7,1.3-9.2,3.4l-12-10.5c2-3.7,1.2-8.4-2.1-11.3c-1.9-1.6-4.2-2.4-6.7-2.3c-2.5,0.2-4.7,1.3-6.4,3.1
		c-1.6,1.9-2.4,4.2-2.3,6.7c0.2,2.5,1.3,4.7,3.1,6.4c1.8,1.5,3.9,2.3,6.1,2.3c1.9,0,3.8-0.6,5.4-1.7l12,10.5
		c-1.4,2.2-2.3,4.9-2.3,7.7c0,3.3,1.1,6.3,3,8.7L21.3,75.5c-2-1.4-4.5-2.1-7-2.1c-3.2,0.1-6.2,1.4-8.5,3.7c-2.2,2.3-3.4,5.4-3.4,8.6
		C2.6,89,3.9,92,6.2,94.2c2.3,2.2,5.2,3.4,8.4,3.4c0.1,0,0.2,0,0.2,0c3.2-0.1,6.2-1.4,8.5-3.7c4.1-4.3,4.5-10.8,1.1-15.4l17.4-17.8
		c1.8,1.3,3.9,2.2,6.2,2.5v11.6c-5.9,1-10.4,6.2-10.4,12.4c0,6.9,5.6,12.5,12.5,12.5S62.5,94,62.5,87.1c0-6.2-4.5-11.3-10.4-12.4
		V63.1c3.8-0.6,7-2.6,9.2-5.5l14,7.7c-1.1,4,0.6,8.5,4.5,10.6c1.4,0.8,2.9,1.1,4.4,1.1c3.3,0,6.5-1.7,8.1-4.8c1.2-2.2,1.5-4.7,0.8-7
		c-0.7-2.4-2.3-4.3-4.4-5.5c-3.8-2.1-8.5-1.2-11.3,1.9l-14-7.7c0.6-1.5,0.9-3.2,0.9-4.9c0-3.3-1.1-6.3-3-8.7l17.4-17.8
		c2,1.4,4.4,2.1,6.7,2.1c3.2,0,6.3-1.2,8.7-3.7c2.2-2.3,3.4-5.4,3.4-8.6C97.4,9,96.1,6,93.8,3.8z M79.9,65.4
		c0.9-1.7,2.6-2.6,4.4-2.6c0.8,0,1.6,0.2,2.4,0.6c1.2,0.6,2,1.7,2.4,3c0.4,1.3,0.2,2.6-0.4,3.8c-1.3,2.4-4.4,3.3-6.8,2
		C79.4,70.9,78.5,67.8,79.9,65.4z M17.3,27c-1-0.9-1.6-2.1-1.7-3.4c-0.1-1.3,0.4-2.6,1.2-3.6c0.9-1,2.1-1.6,3.4-1.7
		c0.1,0,0.2,0,0.3,0c1.2,0,2.4,0.4,3.3,1.2c2.1,1.8,2.3,5,0.5,7.1C22.6,28.6,19.4,28.8,17.3,27z M20.2,91c-1.5,1.5-3.4,2.4-5.5,2.4
		c-2.1,0-4.1-0.7-5.6-2.2c-1.5-1.5-2.4-3.4-2.4-5.5c0-2.1,0.7-4.1,2.2-5.6c1.5-1.5,3.4-2.4,5.5-2.4c0.1,0,0.1,0,0.1,0
		c2,0,4,0.8,5.4,2.2C23.1,82.9,23.2,87.9,20.2,91z M58.3,87.1c0,4.6-3.7,8.3-8.3,8.3s-8.3-3.7-8.3-8.3c0-4.6,3.7-8.3,8.3-8.3
		S58.3,82.5,58.3,87.1z M50,59c-5.5,0-10-4.5-10-10s4.5-10,10-10s10,4.5,10,10S55.5,59,50,59z M91.1,17.9c-1.5,1.6-3.6,2.4-5.6,2.4
		c-2,0-3.9-0.7-5.4-2.2c-3.1-3-3.2-8-0.2-11.1c1.5-1.6,3.6-2.4,5.6-2.4c2,0,3.9,0.7,5.4,2.2c1.5,1.5,2.4,3.4,2.4,5.5
		C93.3,14.4,92.5,16.4,91.1,17.9z"
            fill="#495057"
          />	
		  	<style>
  .custom-svg:hover .st0 {
    fill: #ffffff;
  }
</style>
        </svg>
