<?xml version="1.0" encoding="utf-8"?>
<!-- Generator: Adobe Illustrator 28.0.0, SVG Export Plug-In . SVG Version: 6.00 Build 0)  -->
<svg version="1.1" id="Layer_1" xmlns="http://www.w3.org/2000/svg" xmlns:xlink="http://www.w3.org/1999/xlink" x="0px" y="0px"
	 viewBox="0 0 100 100" style="enable-background:new 0 0 100 100;" xml:space="preserve">
<style type="text/css">
	.st0{fill-rule:evenodd;clip-rule:evenodd;fill:#495057;}
	.st1{fill-rule:evenodd;clip-rule:evenodd;fill:#495057;}
</style>
<g>
	<path class="st0" d="M64,82.1c-4.6,2.4-6.5,7.8-4.7,12.5c-5.4,1.5-10.8,1.9-16.2,1.4c1-4.9-1.9-9.9-6.8-11.5
		c-4.9-1.5-10.1,0.9-12.1,5.5c-4.7-2.7-8.9-6.2-12.5-10.4c4.2-2.8,5.7-8.4,3.3-12.9c-2.4-4.6-7.8-6.5-12.5-4.7
		C1.2,56.8,0.7,51.3,1.2,46c4.9,1,9.9-1.9,11.5-6.8C14.2,34.2,11.7,29,7.1,27c2.7-4.7,6.2-8.9,10.4-12.5c2.8,4.2,8.4,5.7,12.9,3.3
		c4.6-2.4,6.5-7.8,4.7-12.5c5.4-1.5,10.8-1.9,16.2-1.4c-1,4.9,1.9,9.9,6.8,11.5c4.9,1.5,10.1-0.9,12.1-5.5c4.7,2.7,10,7.5,13.6,11.7
		c-1.5,1-2.5,1.4-4.5,2.4l-11.7,6.4c-7.8-8.2-20.2-11.1-31.2-6.5c-14.4,6-21.2,22.5-15.2,36.9c6,14.4,22.5,21.2,36.9,15.2
		C70.3,71,77,58.4,75.2,45.9c5.5-3,11-6,16.4-9c1.5,5.4,2.1,11.8,1.7,17.1c-4.9-1-9.9,1.9-11.5,6.8C80.3,65.8,82.8,71,87.4,73
		c-2.7,4.7-6.2,8.9-10.4,12.5C74.2,81.3,68.6,79.8,64,82.1"/>
	
	<path class="st1" d="M72.2,44.9L99,30.2c-1.5-3.9-3.4-7.6-5.7-11.1L66.7,33.6L42.6,46.8l-9.5-18c-3.7,2.5-6.8,6-8.8,10.1l7.3,13.9
		l5.8,11l10.9-6L72.2,44.9z"/>
</g>
</svg>

